# xmcd CD database file
#
# Track frame offsets:
#	150
#	15529
#	39708
#	41067
#	59534
#	79912
#	100227
#	115364
#	139023
#	155452
#	179892
#	205017
#	219798
#	253024
#
# Disc length: 3821 seconds
#
# Revision: 1
# Processed by: cddbd v1.5.2PL0 Copyright (c) Steve Scherf et al.
# Submitted via: CDex 1.70beta3
#
DISCID=c70eeb0e
DTITLE=Five Corners Quintet, the - Chasin' The Jazz Gone By
DYEAR=2005
DGENRE=Jazz
TTITLE0=Blue Cycles
TTITLE1=Trading Eights
TTITLE2=Interlope
TTITLE3=This Could Be The Start Of Something
TTITLE4=Straight Up
TTITLE5=Three Corners
TTITLE6=Case Study
TTITLE7=Lighthouse
TTITLE8=Before We Say Goodbye
TTITLE9=Unsquare Bossa
TTITLE10=The Devil Kicks
TTITLE11=Jamming (With Mr. Hoagland)
TTITLE12=Three Corners
TTITLE13=The Devil Kicks
EXTD=YEAR: 2005
EXTT0=
EXTT1=
EXTT2=
EXTT3=
EXTT4=
EXTT5=
EXTT6=
EXTT7=
EXTT8=
EXTT9=
EXTT10=
EXTT11=
EXTT12=
EXTT13=
PLAYORDER=
